<?xml version="1.0" encoding="utf-8"?>
<svg id="master-artboard" viewBox="0 0 1400 980" version="1.1" xmlns="http://www.w3.org/2000/svg" x="0px" y="0px" enable-background="new 0 0 1400 980" width="1400px" height="980px">
<path d="M 0 0 H 1400 V 980 H 0 V 0 Z" fill-rule="evenodd" clip-rule="evenodd" fill="#D7C9D6" transform="matrix(0.9999999999999999, 0, 0, 0.9999999999999999, -2.842170943040401e-14, 0)"/><path fill="#FFF7DC" d="M0,329.6h502.1L317.2,301c0,0,23.2-30.7-43.5-44.7c-66.7-14-72.1,20.7-72.1,20.7s6.8-44-25.9-56.7&#10;&#9;&#9;C143,207.7,105,217,105,217s6-30.7-24-40s-70.7-8.7-81,18.7V329.6z" transform="matrix(0.9999999999999999, 0, 0, 0.9999999999999999, -2.842170943040401e-14, 0)"/><path fill="#FFF7DC" d="M168.8,143.8h487l-99-17c0,0-2-26-30-32c-28-6-41.3,0-41.3,0s-4.7-22-40.7-25s-46,15-46,15s-14.8-17-46.7-3&#10;&#9;&#9;c-14.8,6.5-12.3,24.8-12.3,24.8s-11.5-14.7-33.2-5.3c-18.2,7.8-14.8,18.5-14.8,18.5L168.8,143.8z" transform="matrix(0.9999999999999999, 0, 0, 0.9999999999999999, -2.842170943040401e-14, 0)"/><path fill="#FFF7DC" d="M625,268.1h774.1V127.1c0,0-67.5,10-76.5,53c0,0-36.6-10.6-47.1,21.4c0,0-16-25.5-53.5-18.5&#10;&#9;&#9;s-34.5,42.5-34.5,42.5s-37.5-16.5-56-5.5s-19,25.5-19,25.5L625,268.1z" transform="matrix(0.9999999999999999, 0, 0, 0.9999999999999999, -2.842170943040401e-14, 0)"/>
<g transform="matrix(0.9999999999999999, 0, 0, 0.9999999999999999, -2.842170943040401e-14, 0)">
		<g>
			<path d="M 393 553 L 507.29998779296875 560.2999877929688 L 536.7999877929688 624.7999877929688 L 558.0999755859375 567.7999877929688 L 565.2999877929688 576.5 L 673.2000122070312 707.2000122070312 L 677.4000244140625 752.7999877929688 L 780.9000244140625 783.5 L 697.5 593.7999877929688 L 835 483.5 L 893.5999755859375 283.1000061035156 L 749.5999755859375 404.6000061035156 L 595.7000122070312 438.29998779296875 L 493 493.70001220703125 Z" fill-rule="evenodd" clip-rule="evenodd" fill="#534365"/>
			<path d="M 449 529.5 L 599 446 L 749.5999755859375 404.6000061035156 L 595.7000122070312 438.29998779296875 L 446.29998779296875 521.9000244140625 Z" fill-rule="evenodd" clip-rule="evenodd" fill="#625177"/>
			<path d="M 621 549.7000122070312 L 598.2999877929688 561.7000122070312 L 567.2000122070312 591.7999877929688 L 521.7000122070312 617.5 L 571.2999877929688 665.7000122070312 Z" fill-rule="evenodd" clip-rule="evenodd" fill="#625177"/>
			<path d="M 580.2999877929688 640.2999877929688 L 621 549.7000122070312 L 643.2999877929688 647.7000122070312 L 607.2999877929688 701 Z" fill-rule="evenodd" clip-rule="evenodd" fill="#373059"/>
			<path d="M 449 553.7000122070312 L 597 461.70001220703125 L 742.2999877929688 410.29998779296875 L 611.7000122070312 477.70001220703125 L 490.29998779296875 633.5 Z" fill-rule="evenodd" clip-rule="evenodd" fill="#373059"/>
			<path fill-rule="evenodd" clip-rule="evenodd" fill="#2C2751" d="M835,483.5L697.5,593.8l83.5,189.7l78.9,23.4l21.3-9.1&#10;&#9;&#9;&#9;&#9;l182.5-72.1c42.5-15.1,110-68.8,178.3-78.8L1024,445L893.6,283.1L835,483.5z"/>
			<path d="M 1201.699951171875 636.2999877929688 L 1027.699951171875 457.70001220703125 L 1179 656.4000244140625 Z" fill-rule="evenodd" clip-rule="evenodd" fill="#1F1A38"/>
			<path d="M 910 435 L 1030 680 L 1101 665 Z" fill-rule="evenodd" clip-rule="evenodd" fill="#1F1A38"/>
			<path d="M 835 483.5 L 994 809.7000122070312 L 923.7000122070312 821.7000122070312 L 697.5 593.7999877929688 Z" fill-rule="evenodd" clip-rule="evenodd" fill="#122335"/>
			<path d="M 789.9000244140625 519.7000122070312 L 975.7000122070312 783.5 L 835 483.5 Z" fill-rule="evenodd" clip-rule="evenodd" fill="#242042"/>
			<path d="M 621 549.7000122070312 L 757.7000122070312 451 L 842.2999877929688 357 L 760.2999877929688 471.70001220703125 L 631.0999755859375 594.2000122070312 Z" fill-rule="evenodd" clip-rule="evenodd" fill="#625177"/>
			<path d="M 893.5999755859375 283.1000061035156 L 700 471.5 L 749.5999755859375 404.6000061035156 Z" fill-rule="evenodd" clip-rule="evenodd" fill="#625177"/>
		</g>
		<path d="M 583.7999877929688 925.2000122070312 L 587.7999877929688 817.7000122070312 L 625 768.5999755859375 L 583.5999755859375 722.5 L 565.2999877929688 576.5 L 558.0999755859375 567.7999877929688 L 536.7999877929688 624.7999877929688 L 480.5 751.5999755859375 L 461.20001220703125 623.5999755859375 L 415.29998779296875 590.2999877929688 L 385.29998779296875 483.5 L 342.1000061035156 529.5 L 304.1000061035156 621.7999877929688 L 263.1000061035156 524.0999755859375 L 283.20001220703125 457.5 L 268.8999938964844 404.6000061035156 L 240.5 373.5 L 0 656.4000244140625 L 170 673.9000244140625 L 241.5 733.9000244140625 L 314.1000061035156 759.7000122070312 L 380.70001220703125 863.7999877929688 L 467.70001220703125 937.9000244140625 L 550.9000244140625 939.2999877929688 Z" fill-rule="evenodd" clip-rule="evenodd" fill="#556985"/>
		<path d="M 412.29998779296875 600.2999877929688 L 331.70001220703125 825.7000122070312 L 291 771 L 354.29998779296875 710.5 Z" fill-rule="evenodd" clip-rule="evenodd" fill="#2E4256"/>
		<path d="M 259.6000061035156 740.4000244140625 L 304.1000061035156 621.7999877929688 L 275.3999938964844 553.4000244140625 L 289.70001220703125 611.7000122070312 L 259.6000061035156 680 L 240.3000030517578 696.2999877929688 L 201.60000610351562 786.2999877929688 Z" fill-rule="evenodd" clip-rule="evenodd" fill="#2E4256"/>
		<path d="M 263.1000061035156 524.0999755859375 L 179 783.5 L 130.60000610351562 668.5 Z" fill-rule="evenodd" clip-rule="evenodd" fill="#425872"/>
		<path fill-rule="evenodd" clip-rule="evenodd" fill="#425872" d="M455.9,628.5L328,861c0,0,45.5,13,45,10.5&#10;&#9;&#9;&#9;S455.9,628.5,455.9,628.5z"/>
		<path fill-rule="evenodd" clip-rule="evenodd" fill="#627B99" d="M385.3,483.5c0,0-121.1,315.5-122.2,317.5S249,768.6,249,768.6&#10;&#9;&#9;&#9;l55.1-146.8l38-92.3L385.3,483.5z"/>
		<path d="M 283.20001220703125 457.5 L 263.1000061035156 524.0999755859375 L 120 680 Z" fill-rule="evenodd" clip-rule="evenodd" fill="#627B99"/>
		<path d="M 270.3999938964844 410.29998779296875 L 242 400 L 0 701 L 5.099999904632568 650.4000244140625 L 240.5 373.5 Z" fill-rule="evenodd" clip-rule="evenodd" fill="#627B99"/>
		<path d="M 480.5 751.5999755859375 L 536.7999877929688 624.7999877929688 L 507.29998779296875 560.2999877929688 L 430.5 511.8999938964844 L 385.29998779296875 483.5 L 415.29998779296875 590.2999877929688 L 461.20001220703125 623.5999755859375 Z" fill-rule="evenodd" clip-rule="evenodd" fill="#1A3049"/>
		<path d="M 354.29998779296875 925.2000122070312 L 404.29998779296875 806.9000244140625 L 480.5 751.5999755859375 L 558.0999755859375 567.7999877929688 L 565.2999877929688 576.5 L 479.70001220703125 827.7000122070312 L 440.29998779296875 864.2999877929688 L 409 922.2999877929688 L 431 843 L 455.8999938964844 813.7999877929688 L 475 771.7000122070312 L 411.70001220703125 821.7000122070312 L 371.70001220703125 939.2999877929688 Z" fill-rule="evenodd" clip-rule="evenodd" fill="#627B99"/>
		<path fill-rule="evenodd" clip-rule="evenodd" fill="#425872" d="M587.8,817.7L461,950.3c0,0,30.2,14.5,32.9,13.3&#10;&#9;&#9;&#9;C496.8,962.5,587.8,817.7,587.8,817.7z"/>
		<path d="M 587.7999877929688 817.7000122070312 L 583.7999877929688 925.2000122070312 L 859.9000244140625 806.9000244140625 L 801.7000122070312 765.7000122070312 L 720.2999877929688 727.7000122070312 L 670.2999877929688 659.2999877929688 L 565.2999877929688 576.5 L 583.5999755859375 722.5 L 625 768.5999755859375 Z" fill-rule="evenodd" clip-rule="evenodd" fill="#1A3049"/>
		<path d="M 657 721 L 849 875 L 789.9000244140625 881 Z" fill-rule="evenodd" clip-rule="evenodd" fill="#122335"/>
		<path d="M 631.7000122070312 690.2999877929688 L 720.2999877929688 727.7000122070312 L 801.7000122070312 765.7000122070312 L 882.7999877929688 821.7000122070312 L 854.2999877929688 831 L 774.4000244140625 768.5999755859375 Z" fill-rule="evenodd" clip-rule="evenodd" fill="#223C56"/>
		<path d="M 625 768.5999755859375 L 762.5 909 L 700 947.5 L 587.7999877929688 817.7000122070312 Z" fill-rule="evenodd" clip-rule="evenodd" fill="#122335"/>
		<path d="M 304.1000061035156 621.7999877929688 L 342.1000061035156 529.5 L 301.5 440.20001220703125 L 268.8999938964844 404.6000061035156 L 283.20001220703125 457.5 L 263.1000061035156 524.0999755859375 Z" fill-rule="evenodd" clip-rule="evenodd" fill="#1A3049"/>
		<path fill-rule="evenodd" clip-rule="evenodd" fill="#556985" d="M1400,980V338.5l-223,309.1c-26.9,2.9-54.2-0.7-78,2.8&#10;&#9;&#9;&#9;c-68.3,10-62.5,17.5-105,32.6L881.2,797.8l-21.3,9.1L583.8,925.2l-32.9,14.1l-95,40.7H1400z"/>
		<path d="M 1400 338.5 L 1400 398.6000061035156 L 1156.9000244140625 727.7000122070312 L 1159 673 Z" fill-rule="evenodd" clip-rule="evenodd" fill="#627B99"/>
		<path d="M 1400 530.5999755859375 L 1261 806.9000244140625 L 1323 817.7000122070312 L 1370 713 L 1370 683 L 1400 621.2999877929688 Z" fill-rule="evenodd" clip-rule="evenodd" fill="#425872"/>
		<path d="M 0 980 L 455.8999938964844 980 L 550.9000244140625 939.2999877929688 L 467.70001220703125 937.9000244140625 L 380.70001220703125 863.7999877929688 L 314.1000061035156 759.7000122070312 L 241.5 733.9000244140625 L 170 673.9000244140625 L 62.29999923706055 659 L 0 650.4000244140625 Z" fill-rule="evenodd" clip-rule="evenodd" fill="#627B99"/>
		<path d="M 125 713 L 103 727.7000122070312 L 48 744 L 0 744 L 0 980 L 607.7000122070312 980 L 550.9000244140625 939.2999877929688 L 467.70001220703125 937.9000244140625 L 380.70001220703125 863.7999877929688 L 314.1000061035156 759.7000122070312 L 241.5 733.9000244140625 L 170 673.9000244140625 Z" fill-rule="evenodd" clip-rule="evenodd" fill="#1A3049"/>
		<path fill-rule="evenodd" clip-rule="evenodd" fill="#3C4F6E" d="M1267,768c-32-6-108-95-108-95l18-25.3&#10;&#9;&#9;&#9;c-26.9,2.9-54.2-0.7-78,2.8c-68.3,10-62.5,17.5-105,32.6l87,100.5c0,0,93,92.5,106,114.5s213,82,213,82V831l-80-38&#10;&#9;&#9;&#9;C1320,793,1299,774,1267,768z"/>
		<path d="M 720.2999877929688 727.7000122070312 L 666.7000122070312 656.4000244140625 L 565.2999877929688 576.5 L 568 597.7000122070312 L 667 680 Z" fill-rule="evenodd" clip-rule="evenodd" fill="#223C56"/>
		<path d="M 314.1000061035156 759.7000122070312 L 335.70001220703125 847 L 401.70001220703125 952.2999877929688 L 482.29998779296875 980 L 524.4000244140625 959 L 446.29998779296875 942.2999877929688 L 346.29998779296875 840.2999877929688 L 338.1000061035156 797.2000122070312 Z" fill-rule="evenodd" clip-rule="evenodd" fill="#122335"/>
		<path d="M 125 713 L 100 727.7000122070312 L 135.1999969482422 801 L 227 831 L 283.20001220703125 980 L 354.29998779296875 980 L 249 821.7000122070312 L 159 783.5 Z" fill-rule="evenodd" clip-rule="evenodd" fill="#122335"/>
		<path d="M 0 744 L 48 744 L 82 853 L 178 980 L 130.60000610351562 980 L 48 858 L 29 759.7000122070312 Z" fill-rule="evenodd" clip-rule="evenodd" fill="#122335"/>
		<path d="M 616 980 L 888 821.7000122070312 L 1014 721 L 731.7000122070312 980 Z" fill-rule="evenodd" clip-rule="evenodd" fill="#425872"/>
		<path d="M 1095 980 L 1191 910 L 1136 980 Z" fill-rule="evenodd" clip-rule="evenodd" fill="#425872"/>
		<path d="M 849 980 L 1068 801 L 969.7000122070312 910 L 965 939.2999877929688 L 921 980 Z" fill-rule="evenodd" clip-rule="evenodd" fill="#425872"/>
		<path d="M 550.9000244140625 939.2999877929688 L 882.7999877929688 806.9000244140625 L 1000.2999877929688 690.2999877929688 L 994 683 L 872 801 Z" fill-rule="evenodd" clip-rule="evenodd" fill="#627B99"/>
		<path d="M 1026.9000244140625 721 L 1006.7000122070312 727.7000122070312 L 731.7000122070312 980 L 757.2000122070312 980 Z" fill-rule="evenodd" clip-rule="evenodd" fill="#627B99"/>
		<path d="M 1139.5999755859375 843.4000244140625 L 975.7000122070312 980 L 994 980 L 1156.9000244140625 862 Z" fill-rule="evenodd" clip-rule="evenodd" fill="#627B99"/>
	</g>

</svg>